<svg width="17" height="19" xmlns="http://www.w3.org/2000/svg" xmlns:xlink="http://www.w3.org/1999/xlink" overflow="hidden"><defs><clipPath id="clip0"><rect x="486" y="213" width="17" height="19"/></clipPath></defs><g clip-path="url(#clip0)" transform="translate(-486 -213)"><path d="M12.626 10.9615C12.2365 10.5719 11.599 10.5896 11.1208 10.9615L10.3771 10.2177C12.3073 8.12813 12.1833 4.8875 10.0938 2.95729 8.00417 1.02708 4.78125 1.16875 2.85104 3.25833 0.920833 5.34792 1.0625 8.58854 3.13438 10.5188 5.11771 12.3604 8.18125 12.3427 10.1469 10.4833L10.8906 11.2271C10.7312 11.4219 10.6427 11.6698 10.6073 11.9177 10.5719 12.2188 10.6781 12.5198 10.8906 12.7323L13.3875 15.2292C13.5823 15.4062 13.8302 15.5125 14.0958 15.5125 14.45 15.5125 14.7688 15.3708 15.0167 15.1229 15.2469 14.9104 15.3885 14.6094 15.4062 14.2906 15.4417 13.9896 15.3354 13.6885 15.1229 13.476L12.626 10.9615ZM3.25833 10.1115C1.39896 8.25208 1.39896 5.22396 3.25833 3.34687 5.11771 1.46979 8.14583 1.4875 10.0229 3.34687 11.9 5.20625 11.8823 8.23438 10.0229 10.1115 9.11979 11.0146 7.91563 11.5104 6.64062 11.5104 5.38333 11.5104 4.16146 11.0146 3.25833 10.1115ZM14.751 14.8396C14.4146 15.176 13.901 15.2292 13.6177 14.9458L11.1385 12.4667C10.9969 12.325 10.9437 12.1302 10.9615 11.9354 10.9792 11.7052 11.0854 11.4927 11.2625 11.3333 11.4396 11.1562 11.6875 11.05 11.9354 11.0323 12.1125 11.0323 12.2719 11.0854 12.3958 11.2094L14.875 13.7063C15.0167 13.8479 15.0698 14.0427 15.0521 14.2375 15.0167 14.4677 14.9281 14.6802 14.751 14.8396 14.751 14.8396 14.751 14.8396 14.751 14.8396Z" stroke="#595959" stroke-width="0.177083" transform="matrix(1 0 0 1.11765 486 213)"/></g></svg>