<svg width="896" height="287" xmlns="http://www.w3.org/2000/svg" xmlns:xlink="http://www.w3.org/1999/xlink" overflow="hidden"><defs><clipPath id="clip0"><rect x="1752" y="1664" width="896" height="287"/></clipPath><clipPath id="clip1"><rect x="2372" y="1692" width="230" height="230"/></clipPath><clipPath id="clip2"><rect x="2372" y="1692" width="230" height="230"/></clipPath><clipPath id="clip3"><rect x="2372" y="1692" width="230" height="230"/></clipPath><clipPath id="clip4"><rect x="2372" y="1692" width="230" height="230"/></clipPath><clipPath id="clip5"><rect x="2372" y="1692" width="230" height="230"/></clipPath><clipPath id="clip6"><rect x="2372" y="1692" width="230" height="230"/></clipPath></defs><g clip-path="url(#clip0)" transform="translate(-1752 -1664)"><g clip-path="url(#clip1)"><g clip-path="url(#clip2)"><g clip-path="url(#clip3)"><path d="M2411.7 1840.72C2404.38 1838.04 2398.41 1832.58 2395.09 1825.52 2390.61 1815.55 2391.77 1803.96 2398.12 1795.06 2404.59 1786.29 2415.4 1781.83 2426.17 1783.49L2434.64 1784.9 2434.64 1775.67C2434.71 1758.77 2446.2 1744.06 2462.57 1739.89 2479 1735.93 2495.98 1743.85 2503.51 1758.97L2506.39 1764.72 2512.38 1762.6C2521.34 1759.44 2531.27 1760.82 2539.02 1766.32 2546.73 1771.96 2551.29 1780.93 2551.31 1790.48L2551.31 1797.92 2561.04 1797.92C2573.4 1798.39 2583.05 1808.79 2582.59 1821.15 2582.14 1832.95 2572.61 1842.38 2560.8 1842.7L2548.28 1842.7 2517.37 1842.65 2517.37 1857.51 2535.61 1857.56 2560.8 1857.56C2581.4 1857.07 2597.71 1839.98 2597.22 1819.38 2596.79 1801.21 2583.32 1785.99 2565.34 1783.35 2563.44 1771.68 2557.03 1761.23 2547.49 1754.25 2537.62 1747.26 2525.3 1744.67 2513.45 1747.09 2501.8 1729.1 2480.06 1720.41 2459.21 1725.41 2438.84 1730.6 2423.6 1747.54 2420.59 1768.35 2407.1 1768.76 2394.53 1775.3 2386.45 1786.12 2376.87 1799.44 2375.12 1816.87 2381.87 1831.83 2388.75 1846.58 2403.17 1856.36 2419.42 1857.31L2436.93 1857.31 2455.34 1857.36 2455.34 1842.54 2424.33 1842.48 2420.04 1842.48C2417.33 1842.31 2414.65 1841.77 2412.08 1840.86Z" fill="#FFFFFF"/><path d="M2505.44 1886.19 2505.44 1828.94 2535.26 1828.94 2486.35 1771.69 2437.45 1828.94 2467.27 1828.94 2467.27 1886.19 2505.44 1886.19Z" fill="#FFFFFF"/></g></g></g><text fill="#FFFFFF" font-family="Malgun Gothic,Malgun Gothic_MSFontService,sans-serif" font-weight="700" font-size="73" transform="matrix(1 0 0 1 1830.94 1789)">송금용<tspan font-family="Arial,Arial_MSFontService,sans-serif" font-size="73" x="240.625" y="0">QR</tspan>코드<tspan font-size="73" x="138.646" y="88">업로드</tspan></text><path d="M1764 1711.83C1764 1685.42 1785.42 1664 1811.83 1664L2600.17 1664C2626.58 1664 2648 1685.42 2648 1711.83L2648 1903.17C2648 1929.58 2626.58 1951 2600.17 1951L1811.83 1951C1785.42 1951 1764 1929.58 1764 1903.17Z" fill="#FFE900" fill-rule="evenodd"/><g clip-path="url(#clip4)"><g clip-path="url(#clip5)"><g clip-path="url(#clip6)"><path d="M2411.7 1840.72C2404.38 1838.04 2398.41 1832.58 2395.09 1825.52 2390.61 1815.55 2391.77 1803.96 2398.12 1795.06 2404.59 1786.29 2415.4 1781.83 2426.17 1783.49L2434.64 1784.9 2434.64 1775.67C2434.71 1758.77 2446.2 1744.06 2462.57 1739.89 2479 1735.93 2495.98 1743.85 2503.51 1758.97L2506.39 1764.72 2512.38 1762.6C2521.34 1759.44 2531.27 1760.82 2539.02 1766.32 2546.73 1771.96 2551.29 1780.93 2551.31 1790.48L2551.31 1797.92 2561.04 1797.92C2573.4 1798.39 2583.05 1808.79 2582.59 1821.15 2582.14 1832.95 2572.61 1842.38 2560.8 1842.7L2548.28 1842.7 2517.37 1842.65 2517.37 1857.51 2535.61 1857.56 2560.8 1857.56C2581.4 1857.07 2597.71 1839.98 2597.22 1819.38 2596.79 1801.21 2583.32 1785.99 2565.34 1783.35 2563.44 1771.68 2557.03 1761.23 2547.49 1754.25 2537.62 1747.26 2525.3 1744.67 2513.45 1747.09 2501.8 1729.1 2480.06 1720.41 2459.21 1725.41 2438.84 1730.6 2423.6 1747.54 2420.59 1768.35 2407.1 1768.76 2394.53 1775.3 2386.45 1786.12 2376.87 1799.44 2375.12 1816.87 2381.87 1831.83 2388.75 1846.58 2403.17 1856.36 2419.42 1857.31L2436.93 1857.31 2455.34 1857.36 2455.34 1842.54 2424.33 1842.48 2420.04 1842.48C2417.33 1842.31 2414.65 1841.77 2412.08 1840.86Z"/><path d="M2505.44 1886.19 2505.44 1828.94 2535.26 1828.94 2486.35 1771.69 2437.45 1828.94 2467.27 1828.94 2467.27 1886.19 2505.44 1886.19Z"/></g></g></g><text font-family="Malgun Gothic,Malgun Gothic_MSFontService,sans-serif" font-weight="700" font-size="73" transform="matrix(1 0 0 1 1830.94 1789)">송금용<tspan font-family="Arial,Arial_MSFontService,sans-serif" font-size="73" x="240.625" y="0">QR</tspan>코드<tspan font-size="73" x="138.646" y="88">업로드</tspan></text></g></svg>